<?xml version="1.0" encoding="UTF-8" standalone="no"?>
    <svg xmlns:dc="http://purl.org/dc/elements/1.1/" xmlns:cc="http://creativecommons.org/ns#" xmlns:rdf="http://www.w3.org/1999/02/22-rdf-syntax-ns#" xmlns:svg="http://www.w3.org/2000/svg" xmlns="http://www.w3.org/2000/svg" xmlns:sodipodi="http://sodipodi.sourceforge.net/DTD/sodipodi-0.dtd" xmlns:inkscape="http://www.inkscape.org/namespaces/inkscape" width="854" height="480" viewBox="0 0 854 480" id="HomeSVG" version="1.1" inkscape:version="0.91 r13725" sodipodi:docname="home.svg">
        <metadata id="metadata46">
            <rdf:RDF>
                <cc:Work rdf:about="">
                    <dc:format>image/svg+xml</dc:format>
                    <dc:type rdf:resource="http://purl.org/dc/dcmitype/StillImage" />
                </cc:Work>
            </rdf:RDF>
        </metadata>
        <sodipodi:namedview pagecolor="#ffffff" bordercolor="#666666" borderopacity="1" objecttolerance="10" gridtolerance="10" guidetolerance="10" inkscape:pageopacity="0" inkscape:pageshadow="2" inkscape:window-width="1366" inkscape:window-height="705" id="namedview44" showgrid="false" inkscape:zoom="1.3489461" inkscape:cx="346.38412" inkscape:cy="362.28558" inkscape:window-x="-8" inkscape:window-y="-8" inkscape:window-maximized="1" inkscape:current-layer="HomeSVG" />
        <defs id="Definitions">
            <filter style="color-interpolation-filters:sRGB" height="200%" id="Shadow">
                <feFlood flood-opacity="0.6" flood-color="rgb(0,0,0)" result="flood" id="feFlood11" />
                <feComposite in="flood" in2="SourceGraphic" operator="in" result="composite1" id="feComposite13" />
                <feGaussianBlur in="composite1" stdDeviation="0" result="blur" id="feGaussianBlur15" />
                <feOffset dx="3" dy="3" result="offset" id="feOffset17" />
                <feComposite in="SourceGraphic" in2="offset" operator="over" result="composite2" id="feComposite19" />
            </filter>
            <filter style="color-interpolation-filters:sRGB" height="200%" id="ShadowTwo">
                <feFlood flood-opacity="0.6" flood-color="rgb(0,0,0)" result="flood" id="feFlood12" />
                <feComposite in="flood" in2="SourceGraphic" operator="in" result="composite1" id="feComposite14" />
                <feGaussianBlur in="composite1" stdDeviation="0" result="blur" id="feGaussianBlur16" />
                <feOffset dx="2" dy="2" result="offset" id="feOffset18" />
                <feComposite in="SourceGraphic" in2="offset" operator="over" result="composite2" id="feComposite20" />
            </filter>
        </defs>
        <g transform="translate(0,-572.3622)" style="display:inline" id="g16">
            <path id="TagLine" style="opacity:0;fill:#cccccc;filter:url(#Shadow)" d="m 607.43213,810.64099 -1.81641,0 0,-2.94433 1.81641,0 0,-3.19336 3.66211,-1.34766 0,4.54102 4.30664,0 0,2.94433 -4.30664,0 0,6.87012 q 0,1.68457 0.52734,2.38769 0.52735,0.68848 1.84571,0.68848 1.31835,0 2.46093,-0.71777 l 0,3.36914 q -1.27441,0.43945 -3.63281,0.43945 -2.34375,0 -3.60352,-1.31836 -1.25976,-1.33301 -1.25976,-3.7793 l 0,-7.93945 z m -3.60352,-1.69922 -1.56738,2.73926 q -1.28906,-1.21582 -3.45703,-1.21582 -2.08008,0 -3.2959,1.3916 -1.20117,1.37695 -1.20117,3.82324 0,4.93653 4.70215,4.93653 2.03613,0 3.58886,-1.34766 l 1.34766,2.88574 q -1.59668,0.9961 -2.79785,1.25977 -1.18652,0.26367 -2.8125,0.26367 -3.63281,0 -5.74219,-2.10937 -2.09472,-2.12403 -2.09472,-5.88868 0,-3.70605 2.2998,-5.99121 2.2998,-2.28515 6.26953,-2.28515 2.73926,0 4.76074,1.53808 z m -15.52734,7.71973 -11.20606,0 q 0.10254,1.875 1.28907,2.91504 1.18652,1.04004 3.19336,1.04004 2.50488,0 3.80859,-1.30371 l 1.4209,2.79785 q -1.93359,1.56738 -5.77149,1.56738 -3.58886,0 -5.68359,-2.09473 -2.08008,-2.10937 -2.08008,-5.87402 0,-3.70605 2.28516,-6.00586 2.2998,-2.2998 5.50781,-2.2998 3.41309,0 5.47852,2.03613 2.06543,2.03613 2.06543,5.18555 0,0.67382 -0.30762,2.03613 z m -11.07422,-2.75391 7.70508,0 q -0.38086,-3.44238 -3.80859,-3.44238 -3.13477,0 -3.89649,3.44238 z m -10.53223,9.47754 0,-9.06738 q 0,-2.00684 -0.77636,-2.92969 -0.76172,-0.92285 -2.50489,-0.92285 -0.80566,0 -1.72851,0.4541 -0.9082,0.4541 -1.4209,1.12793 l 0,11.33789 -3.66211,0 0,-15.68847 2.63672,0 0.67383,1.46484 q 1.49414,-1.75781 4.40918,-1.75781 2.79785,0 4.40918,1.68457 1.62597,1.66992 1.62597,4.67285 l 0,9.62402 -3.66211,0 z m -17.69531,0 0,-9.06738 q 0,-2.00684 -0.77637,-2.92969 -0.76171,-0.92285 -2.50488,-0.92285 -0.80566,0 -1.72851,0.4541 -0.90821,0.4541 -1.4209,1.12793 l 0,11.33789 -3.66211,0 0,-15.68847 2.63672,0 0.67383,1.46484 q 1.49414,-1.75781 4.40917,-1.75781 2.79786,0 4.40918,1.68457 1.62598,1.66992 1.62598,4.67285 l 0,9.62402 -3.66211,0 z m -28.11035,-7.88086 q 0,-3.58886 2.06543,-5.84472 2.08008,-2.25586 5.47852,-2.25586 3.57421,0 5.55175,2.16797 1.97754,2.16796 1.97754,5.93261 0,3.75 -2.02148,5.96192 -2.00684,2.21191 -5.50781,2.21191 -3.57422,0 -5.56641,-2.22656 -1.97754,-2.24121 -1.97754,-5.94727 z m 3.80859,0 q 0,5.18555 3.73536,5.18555 1.71386,0 2.70996,-1.34766 1.01074,-1.34765 1.01074,-3.83789 0,-5.1123 -3.7207,-5.1123 -1.71387,0 -2.72461,1.34765 -1.01075,1.34766 -1.01075,3.76465 z m -6.19629,-12.43652 -1.56738,3.14941 q -1.27441,-1.27441 -4.10156,-1.27441 -2.68066,0 -4.39453,2.25586 -1.71387,2.24121 -1.71387,5.68359 0,3.44238 1.58203,5.46387 1.59668,2.02148 4.24805,2.02148 3.03223,0 4.74609,-2.16797 l 1.77246,3.07618 q -2.3291,2.47558 -6.82617,2.47558 -4.49707,0 -6.9873,-2.95898 -2.49024,-2.95899 -2.49024,-8.07129 0,-4.76074 2.75391,-7.9541 2.76855,-3.20801 7.07519,-3.20801 3.69141,0 5.90332,1.50879 z m -37.86621,19.30664 1.30371,-2.91504 q 1.64063,1.30371 3.70606,1.30371 2.13867,0 2.13867,-1.52344 0,-0.89355 -0.64453,-1.46484 -0.64453,-0.57129 -2.50488,-1.34766 -4.05762,-1.68457 -4.05762,-4.71679 0,-2.03614 1.55273,-3.16407 1.55274,-1.14257 3.96973,-1.14257 2.44629,0 4.59961,1.09863 l -1.05469,2.8418 q -1.20117,-1.02539 -3.33984,-1.02539 -1.91895,0 -1.91895,1.52343 0,0.60059 0.62989,1.08399 0.62988,0.4834 2.69531,1.30371 2.06543,0.80566 2.97363,1.96289 0.90821,1.15723 0.90821,2.79785 0,2.18262 -1.62598,3.44238 -1.61133,1.24512 -4.39453,1.24512 -1.56739,0 -2.51953,-0.26367 -0.9375,-0.24902 -2.417,-1.04004 z m -6.29882,-0.55664 q -0.49805,0.82031 -1.74317,1.34766 -1.23047,0.51269 -2.57812,0.51269 -2.53418,0 -3.98438,-1.25977 -1.45019,-1.27441 -1.45019,-3.60351 0,-2.72461 2.03613,-4.2627 2.05078,-1.53808 5.81543,-1.53808 0.64453,0 1.52344,0.21972 0,-2.76855 -3.50098,-2.76855 -2.06543,0 -3.45703,0.68848 l -0.79102,-2.8418 q 1.88965,-0.9082 4.49707,-0.9082 3.58887,0 5.25879,1.64062 1.66992,1.62598 1.66992,6.18164 l 0,3.35449 q 0,3.13477 1.25977,3.94043 -0.4541,0.79102 -1.01074,0.9668 -0.55664,0.19043 -1.27442,0.19043 -0.79101,0 -1.42089,-0.58594 -0.62989,-0.58593 -0.84961,-1.27441 z m -0.35157,-5.81543 q -0.9375,-0.19043 -1.40625,-0.19043 -4.33593,0 -4.33593,2.8418 0,2.10937 2.44628,2.10937 3.2959,0 3.2959,-3.2959 l 0,-1.46484 z m -11.60156,0.65918 -11.20605,0 q 0.10254,1.875 1.28906,2.91504 1.18652,1.04004 3.19336,1.04004 2.50488,0 3.80859,-1.30371 l 1.4209,2.79785 q -1.93359,1.56738 -5.77148,1.56738 -3.58887,0 -5.6836,-2.09473 -2.08008,-2.10937 -2.08008,-5.87402 0,-3.70605 2.28516,-6.00586 2.2998,-2.2998 5.50781,-2.2998 3.41309,0 5.47852,2.03613 2.06543,2.03613 2.06543,5.18555 0,0.67382 -0.30762,2.03613 z m -11.07422,-2.75391 7.70508,0 q -0.38086,-3.44238 -3.80859,-3.44238 -3.13477,0 -3.89649,3.44238 z m -10.23926,9.47754 0,-0.95215 q -0.4541,0.49805 -1.53808,0.87891 -1.08399,0.36621 -2.24121,0.36621 -3.28125,0 -5.1709,-2.08008 -1.875,-2.08008 -1.875,-5.80078 0,-3.7207 2.15332,-6.0498 2.16797,-2.34375 5.41992,-2.34375 1.78711,0 3.25195,0.73242 l 0,-6.28418 3.66211,-0.87891 0,22.41211 -3.66211,0 z m 0,-11.93847 q -1.17187,-0.9375 -2.44628,-0.9375 -2.19727,0 -3.38379,1.34765 -1.18653,1.33301 -1.18653,3.83789 0,4.89258 4.7168,4.89258 0.52734,0 1.28906,-0.30762 0.77637,-0.32226 1.01074,-0.64453 l 0,-8.18847 z m -18.17871,11.93847 0,-21.45996 3.8086,0 0,21.45996 -3.8086,0 z m -12.53906,-6.72363 -11.20605,0 q 0.10254,1.875 1.28906,2.91504 1.18652,1.04004 3.19336,1.04004 2.50488,0 3.80859,-1.30371 l 1.4209,2.79785 q -1.93359,1.56738 -5.77148,1.56738 -3.58887,0 -5.6836,-2.09473 -2.08008,-2.10937 -2.08008,-5.87402 0,-3.70605 2.28516,-6.00586 2.2998,-2.2998 5.50781,-2.2998 3.41309,0 5.47852,2.03613 2.06543,2.03613 2.06543,5.18555 0,0.67382 -0.30762,2.03613 z m -11.07422,-2.75391 7.70508,0 q -0.38086,-3.44238 -3.80859,-3.44238 -3.13477,0 -3.89649,3.44238 z m -6.69433,-2.79785 q -0.98145,-0.64453 -2.15332,-0.64453 -1.27442,0 -2.27051,1.15723 -0.98145,1.15722 -0.98145,2.82714 l 0,8.93555 -3.66211,0 0,-15.68847 3.66211,0 0,1.43554 q 1.53809,-1.72851 4.08692,-1.72851 1.875,0 2.87109,0.57129 l -1.55273,3.13476 z m -12.29004,5.55176 -11.20606,0 q 0.10254,1.875 1.28906,2.91504 1.18653,1.04004 3.19336,1.04004 2.50489,0 3.8086,-1.30371 l 1.4209,2.79785 q -1.9336,1.56738 -5.77149,1.56738 -3.58887,0 -5.68359,-2.09473 -2.08008,-2.10937 -2.08008,-5.87402 0,-3.70605 2.28516,-6.00586 2.2998,-2.2998 5.50781,-2.2998 3.41308,0 5.47851,2.03613 2.06543,2.03613 2.06543,5.18555 0,0.67382 -0.30761,2.03613 z m -11.07422,-2.75391 7.70508,0 q -0.38086,-3.44238 -3.8086,-3.44238 -3.13476,0 -3.89648,3.44238 z m -10.59082,9.47754 0,-9.66797 q 0,-1.45019 -0.90821,-2.3291 -0.9082,-0.8789 -2.37304,-0.8789 -0.90821,0 -1.83106,0.49804 -0.92285,0.4834 -1.31836,1.11328 l 0,11.26465 -3.7207,0 0,-21.5332 3.7207,-0.87891 0,7.71973 q 1.4209,-1.28906 3.91114,-1.28906 2.94433,0 4.57031,1.64062 1.62598,1.62598 1.62598,4.67285 l 0,9.66797 -3.67676,0 z m -19.17481,0.29297 -1.56738,0 -4.6875,-13.53516 -4.55566,13.53516 -1.56739,0 -7.04589,-21.75293 3.96972,0 4.02832,12.94922 4.35059,-12.94922 1.66992,0 4.36523,12.94922 4.01368,-12.94922 3.96972,0 -6.94336,21.75293 z m -29.76562,-7.0166 -11.20606,0 q 0.10254,1.875 1.28907,2.91504 1.18652,1.04004 3.19336,1.04004 2.50488,0 3.80859,-1.30371 l 1.4209,2.79785 q -1.9336,1.56738 -5.77149,1.56738 -3.58886,0 -5.68359,-2.09473 -2.08008,-2.10937 -2.08008,-5.87402 0,-3.70605 2.28516,-6.00586 2.2998,-2.2998 5.50781,-2.2998 3.41309,0 5.47852,2.03613 2.06543,2.03613 2.06543,5.18555 0,0.67382 -0.30762,2.03613 z m -11.07422,-2.75391 7.70508,0 q -0.38086,-3.44238 -3.8086,-3.44238 -3.13476,0 -3.89648,3.44238 z m -5.97656,-4.96582 -1.56739,2.73926 q -1.28906,-1.21582 -3.45703,-1.21582 -2.08008,0 -3.2959,1.3916 -1.20117,1.37695 -1.20117,3.82324 0,4.93653 4.70215,4.93653 2.03613,0 3.58887,-1.34766 l 1.34765,2.88574 q -1.59668,0.9961 -2.79785,1.25977 -1.18652,0.26367 -2.8125,0.26367 -3.63281,0 -5.74218,-2.10937 -2.09473,-2.12403 -2.09473,-5.88868 0,-3.70605 2.2998,-5.99121 2.29981,-2.28515 6.26953,-2.28515 2.73926,0 4.76075,1.53808 z m -19.57032,12.87598 q -0.49804,0.82031 -1.74316,1.34766 -1.23047,0.51269 -2.57812,0.51269 -2.53418,0 -3.98438,-1.25977 -1.45019,-1.27441 -1.45019,-3.60351 0,-2.72461 2.03613,-4.2627 2.05078,-1.53808 5.81543,-1.53808 0.64453,0 1.52344,0.21972 0,-2.76855 -3.50098,-2.76855 -2.06543,0 -3.45703,0.68848 l -0.79102,-2.8418 q 1.88965,-0.9082 4.49707,-0.9082 3.58887,0 5.25879,1.64062 1.66992,1.62598 1.66992,6.18164 l 0,3.35449 q 0,3.13477 1.25977,3.94043 -0.4541,0.79102 -1.01074,0.9668 -0.55664,0.19043 -1.27442,0.19043 -0.79101,0 -1.4209,-0.58594 -0.62988,-0.58593 -0.84961,-1.27441 z m -0.35156,-5.81543 q -0.9375,-0.19043 -1.40625,-0.19043 -4.33594,0 -4.33594,2.8418 0,2.10937 2.44629,2.10937 3.2959,0 3.2959,-3.2959 l 0,-1.46484 z m -16.59668,-14.15039 3.66211,-0.87891 0,17.63672 q 0,2.90039 1.72852,3.45703 -0.84961,1.61133 -2.90039,1.61133 -2.49024,0 -2.49024,-3.45703 l 0,-18.36914 z m -14.23828,13.63769 0,7.89551 -3.80859,0 0,-21.44531 q 3.80859,-0.16113 4.45312,-0.16113 5.08301,0 7.42676,1.56738 2.3584,1.55273 2.3584,4.86328 0,7.38281 -8.70117,7.38281 -0.64453,0 -1.72852,-0.10254 z m 0,-10.2539 0,6.87011 q 0.9668,0.10254 1.52344,0.10254 2.60742,0 3.80859,-0.86425 1.20117,-0.87891 1.20117,-2.8418 0,-3.33984 -5.37597,-3.33984 -0.60059,0 -1.15723,0.0732 z" />
            <g id="RightWire" style="opacity:1;fill:#b43232;filter:url(#Shadow)">
                <rect y="806.36218" x="-329.90698" height="12" width="480" id="RightThread" />
                <g id="RightOption">
                    <rect y="806.36218" x="-110.45936" height="12" width="200" id="RightOptionBack" style="opacity:0;cursor:hand;cursor:pointer" />
                    <g id="ClosedDoor" style="opacity:0;filter:url(#Shadow);cursor:pointer" transform="translate(-405,675)">
                        <path style="opacity:1;fill:#666666" d="m 315.68423,-0.18799973 160,0 0,239.99999973 -160,0 z" id="ClosedDoorBack" />
                        <path style="opacity:1;fill:#4d4d4d" d="m 445.64911,151.03455 10,0 0,20 -10,0 z" id="ClosedDoorKnob" />
                        <path style="opacity:1;fill:#808080" d="m 335.68423,84.372345 55,0 0,54.999995 -55,0 z" id="ClosedDoorWindow-10" />
                        <path style="opacity:1;fill:#808080" d="m 335.68423,19.372349 55,0 0,55 -55,0 z" id="ClosedDoorWindow-00" />
                        <path style="opacity:1;fill:#808080" d="m 400.68423,19.372349 55,0 0,55 -55,0 z" id="ClosedDoorWindow-01" />
                        <path style="opacity:1;fill:#808080" d="m 400.68423,84.372345 55,0 0,54.999995 -55,0 z" id="ClosedDoorWindow-11" />
                    </g>
                    <g style="fill:#ffffff;opacity:0;filter:url(#ShadowTwo)" id="CreateRoom" transform="translate(-226,30)">
                        <path d="m 285.23846,905.89008 0,-8.19092 q 0,-2.57569 -2.30712,-2.57569 -0.6836,0 -1.31836,0.40284 -0.63477,0.40283 -0.89112,0.92773 l 0,9.43604 -3.05176,0 0,-8.667 q 0,-0.96435 -0.59814,-1.52588 -0.59814,-0.57373 -1.68457,-0.57373 -0.57373,0 -1.25732,0.42725 -0.67139,0.42725 -0.97657,0.93994 l 0,9.39942 -3.05175,0 0,-13.07373 2.0996,0 0.62256,1.14746 q 1.26953,-1.39161 3.28369,-1.39161 2.6001,0 3.91846,1.41602 0.57373,-0.64697 1.59912,-1.02539 1.02539,-0.39063 2.05078,-0.39063 2.18506,0 3.39356,1.25733 1.2207,1.24512 1.2207,3.43017 l 0,8.63038 -3.05176,0 z m -30.15136,-6.56739 q 0,-2.99072 1.72119,-4.8706 1.7334,-1.87989 4.56543,-1.87989 2.97851,0 4.62646,1.80665 1.64795,1.80664 1.64795,4.94384 0,3.125 -1.68457,4.96826 -1.67236,1.84327 -4.58984,1.84327 -2.97852,0 -4.63867,-1.85547 -1.64795,-1.86768 -1.64795,-4.95606 z m 3.17383,0 q 0,4.32129 3.11279,4.32129 1.42822,0 2.2583,-1.12304 0.84228,-1.12305 0.84228,-3.19825 0,-4.26025 -3.10058,-4.26025 -1.42822,0 -2.27051,1.12305 -0.84228,1.12304 -0.84228,3.1372 z m -17.33399,0 q 0,-2.99072 1.72119,-4.8706 1.7334,-1.87989 4.56543,-1.87989 2.97852,0 4.62647,1.80665 1.64795,1.80664 1.64795,4.94384 0,3.125 -1.68457,4.96826 -1.67237,1.84327 -4.58985,1.84327 -2.97851,0 -4.63867,-1.85547 -1.64795,-1.86768 -1.64795,-4.95606 z m 3.17383,0 q 0,4.32129 3.11279,4.32129 1.42822,0 2.2583,-1.12304 0.84229,-1.12305 0.84229,-3.19825 0,-4.26025 -3.10059,-4.26025 -1.42822,0 -2.27051,1.12305 -0.84228,1.12304 -0.84228,3.1372 z m -7.33643,6.56739 -4.77295,-7.38526 q -0.72021,-0.0122 -2.01416,-0.0855 l 0,7.47071 -3.29589,0 0,-17.88331 q 0.26855,0 2.06298,-0.0854 1.79444,-0.0977 2.89307,-0.0977 6.81152,0 6.81152,5.27344 0,1.58691 -0.93994,2.89306 -0.93994,1.30616 -2.36816,1.84327 l 5.28564,8.05664 -3.66211,0 z m -6.78711,-15.12452 0,4.96827 q 0.87891,0.0732 1.34278,0.0732 1.98974,0 2.90527,-0.56153 0.92774,-0.56152 0.92774,-2.18505 0,-1.31836 -0.98877,-1.84327 -0.98877,-0.5249 -3.1128,-0.5249 -0.51269,0 -1.07422,0.0732 z m -13.68408,9.52149 -9.33838,0 q 0.0855,1.5625 1.07422,2.4292 0.98877,0.8667 2.66113,0.8667 2.08741,0 3.17383,-1.08643 l 1.18408,2.33154 q -1.61132,1.30616 -4.80957,1.30616 -2.99072,0 -4.73632,-1.74561 -1.7334,-1.75781 -1.7334,-4.89502 0,-3.08838 1.90429,-5.00488 1.91651,-1.91651 4.58985,-1.91651 2.84424,0 4.56543,1.69678 1.72119,1.69678 1.72119,4.32129 0,0.56152 -0.25635,1.69678 z m -9.22851,-2.29492 6.42089,0 q -0.31738,-2.86866 -3.17382,-2.86866 -2.61231,0 -3.24707,2.86866 z m -11.88965,-2.72217 -1.51367,0 0,-2.45361 1.51367,0 0,-2.66114 3.05176,-1.12304 0,3.78418 3.58886,0 0,2.45361 -3.58886,0 0,5.7251 q 0,1.4038 0.43945,1.98974 0.43945,0.57373 1.53808,0.57373 1.09864,0 2.05079,-0.59814 l 0,2.80762 q -1.06202,0.36621 -3.02735,0.36621 -1.95312,0 -3.00293,-1.09864 -1.0498,-1.11084 -1.0498,-3.14941 l 0,-6.61621 z m -6.51856,9.31396 q -0.41504,0.6836 -1.45263,1.12305 -1.02539,0.42725 -2.14844,0.42725 -2.11182,0 -3.32031,-1.04981 -1.2085,-1.06201 -1.2085,-3.00293 0,-2.27051 1.69678,-3.55224 1.70898,-1.28174 4.84619,-1.28174 0.53711,0 1.26953,0.1831 0,-2.30713 -2.91748,-2.30713 -1.72119,0 -2.88086,0.57373 l -0.65918,-2.36816 q 1.57471,-0.75684 3.74756,-0.75684 2.99072,0 4.38232,1.36719 1.39161,1.35498 1.39161,5.15137 l 0,2.79541 q 0,2.6123 1.0498,3.28369 -0.37842,0.65918 -0.84229,0.80566 -0.46386,0.1587 -1.06201,0.1587 -0.65918,0 -1.18408,-0.48828 -0.5249,-0.48829 -0.70801,-1.06202 z m -0.29297,-4.84619 q -0.78125,-0.15869 -1.17187,-0.15869 -3.61328,0 -3.61328,2.36816 0,1.75782 2.03857,1.75782 2.74658,0 2.74658,-2.74658 l 0,-1.22071 z m -9.66796,0.54932 -9.33838,0 q 0.0854,1.5625 1.07422,2.4292 0.98876,0.8667 2.66113,0.8667 2.0874,0 3.17383,-1.08643 l 1.18408,2.33154 q -1.61133,1.30616 -4.80957,1.30616 -2.99072,0 -4.73633,-1.74561 -1.7334,-1.75781 -1.7334,-4.89502 0,-3.08838 1.9043,-5.00488 1.9165,-1.91651 4.58984,-1.91651 2.84424,0 4.56543,1.69678 1.72119,1.69678 1.72119,4.32129 0,0.56152 -0.25634,1.69678 z m -9.22852,-2.29492 6.4209,0 q -0.31738,-2.86866 -3.17383,-2.86866 -2.6123,0 -3.24707,2.86866 z m -5.57861,-2.33155 q -0.81787,-0.53711 -1.79444,-0.53711 -1.06201,0 -1.89209,0.96436 -0.81787,0.96436 -0.81787,2.35596 l 0,7.44629 -3.05176,0 0,-13.07373 3.05176,0 0,1.19628 q 1.28174,-1.44043 3.40576,-1.44043 1.5625,0 2.39258,0.47608 l -1.29394,2.6123 z m -10.40039,-6.70166 -1.30616,2.62452 q -1.06201,-1.06202 -3.41797,-1.06202 -2.23388,0 -3.6621,1.87989 -1.42823,1.86767 -1.42823,4.73632 0,2.86866 1.31836,4.55323 1.33057,1.68457 3.54004,1.68457 2.52686,0 3.95508,-1.80664 l 1.47705,2.56347 q -1.94092,2.06299 -5.68848,2.06299 -3.74755,0 -5.82275,-2.46582 -2.0752,-2.46582 -2.0752,-6.72607 0,-3.96729 2.29493,-6.62842 2.30713,-2.67334 5.89599,-2.67334 3.07617,0 4.91944,1.25732 z" id="path24" />
                    </g>
                </g>
            </g>
            <path id="RightHead" style="opacity:1;fill:#b43232;filter:url(#Shadow)" d="m 158.31892,852.38388 49.99999,0 0,10 -49.99999,0 z m -3e-5,-89.95526 49.99999,0 0,9.99999 -49.99999,0 z m -9.67006,-0.0881 9.99999,0 0,99.99999 -9.99999,0 z" />
            <path id="LeftHead" style="opacity:1;fill:#b4b432;filter:url(#Shadow)" d="m 699.4494,762.36218 10,0 0,99.99999 -10,0 z m -50.1203,10 59.99999,0 0,79.99999 -59.99999,0 z" />
            <g id="LeftWire" style="opacity:1;fill:#b4b432;filter:url(#Shadow)">
                <rect y="806.36218" x="708.82184" height="12" width="480" id="LeftThread" />
                <g id="LeftOption" style="perspective:1000px">
                    <rect y="806.36218" x="768.35834" height="12" width="200" id="LeftOptionBack" style="opacity:0;cursor:hand;cursor:pointer" />
                    <g id="OpenedDoor" style="opacity:0;filter:url(#Shadow);cursor:pointer" transform="translate(280,685)">
                        <rect y="-10.659733" x="507.125" height="240" width="160" id="OpenedDoorLower" style="opacity:1;fill:#333333" />
                        <g transform="translate(191.44078,-10.471733)" id="OpenedDoorUpper">
                            <path id="OpenedDoorBack" d="m 315.68423,-0.18799973 160,0 0,239.99999973 -160,0 z" style="opacity:1;fill:#666666" />
                            <path id="OpenedDoorKnob" d="m 445.64911,151.03455 10,0 0,20 -10,0 z" style="opacity:1;fill:#4d4d4d" />
                            <path id="ClosedDoorWindow-10" d="m 335.68423,84.372345 55,0 0,54.999995 -55,0 z" style="opacity:1;fill:#808080" />
                            <path id="ClosedDoorWindow-00" d="m 335.68423,19.372349 55,0 0,55 -55,0 z" style="opacity:1;fill:#808080" />
                            <path id="ClosedDoorWindow-01" d="m 400.68423,19.372349 55,0 0,55 -55,0 z" style="opacity:1;fill:#808080" />
                            <path id="ClosedDoorWindow-11" d="m 400.68423,84.372345 55,0 0,54.999995 -55,0 z" style="opacity:1;fill:#808080" />
                        </g>
                    </g>
                    <g style="fill:#ffffff;opacity:0;filter:url(#ShadowTwo)" id="JoinRoom" transform="translate(682,-21)">
                        <path d="m 242.87366,956.39771 0,-8.19092 q 0,-2.57569 -2.30713,-2.57569 -0.6836,0 -1.31836,0.40284 -0.63477,0.40283 -0.89111,0.92773 l 0,9.43604 -3.05176,0 0,-8.667 q 0,-0.96435 -0.59815,-1.52588 -0.59814,-0.57373 -1.68457,-0.57373 -0.57373,0 -1.25732,0.42725 -0.67139,0.42725 -0.97656,0.93994 l 0,9.39942 -3.05176,0 0,-13.07374 2.09961,0 0.62256,1.14747 q 1.26953,-1.39161 3.28369,-1.39161 2.6001,0 3.91845,1.41602 0.57374,-0.64697 1.59913,-1.02539 1.02539,-0.39063 2.05078,-0.39063 2.18506,0 3.39355,1.25733 1.22071,1.24512 1.22071,3.43017 l 0,8.63038 -3.05176,0 z m -30.15137,-6.56739 q 0,-2.99072 1.72119,-4.8706 1.7334,-1.87989 4.56543,-1.87989 2.97852,0 4.62647,1.80664 1.64795,1.80665 1.64795,4.94385 0,3.125 -1.68458,4.96826 -1.67236,1.84327 -4.58984,1.84327 -2.97851,0 -4.63867,-1.85547 -1.64795,-1.86768 -1.64795,-4.95606 z m 3.17383,0 q 0,4.32129 3.11279,4.32129 1.42822,0 2.2583,-1.12305 0.84229,-1.12304 0.84229,-3.19824 0,-4.26025 -3.10059,-4.26025 -1.42822,0 -2.27051,1.12305 -0.84228,1.12304 -0.84228,3.1372 z m -17.33399,0 q 0,-2.99072 1.7212,-4.8706 1.73339,-1.87989 4.56542,-1.87989 2.97852,0 4.62647,1.80664 1.64795,1.80665 1.64795,4.94385 0,3.125 -1.68457,4.96826 -1.67236,1.84327 -4.58985,1.84327 -2.97851,0 -4.63867,-1.85547 -1.64795,-1.86768 -1.64795,-4.95606 z m 3.17383,0 q 0,4.32129 3.11279,4.32129 1.42823,0 2.25831,-1.12305 0.84228,-1.12304 0.84228,-3.19824 0,-4.26025 -3.10059,-4.26025 -1.42822,0 -2.2705,1.12305 -0.84229,1.12304 -0.84229,3.1372 z m -7.33642,6.56739 -4.77295,-7.38526 q -0.72022,-0.0122 -2.01416,-0.0854 l 0,7.47071 -3.2959,0 0,-17.88331 q 0.26855,0 2.06299,-0.0854 1.79443,-0.0977 2.89306,-0.0977 6.81153,0 6.81153,5.27344 0,1.58691 -0.93994,2.89306 -0.93995,1.30616 -2.36817,1.84326 l 5.28565,8.05665 -3.66211,0 z m -6.78711,-15.12452 0,4.96827 q 0.8789,0.0732 1.34277,0.0732 1.98975,0 2.90527,-0.56153 0.92774,-0.56152 0.92774,-2.18505 0,-1.31836 -0.98877,-1.84327 -0.98877,-0.5249 -3.11279,-0.5249 -0.5127,0 -1.07422,0.0732 z m -17.33399,15.12452 0,-7.55616 q 0,-1.67236 -0.64697,-2.4414 -0.63477,-0.76905 -2.0874,-0.76905 -0.67139,0 -1.44043,0.37842 -0.75684,0.37842 -1.18408,0.93994 l 0,9.44825 -3.05176,0 0,-13.07374 2.19726,0 0.56153,1.22071 q 1.24511,-1.46485 3.67431,-1.46485 2.33155,0 3.67432,1.40381 1.35498,1.3916 1.35498,3.89405 l 0,8.02002 -3.05176,0 z m -13.48877,-18.13965 q 0.73242,0 1.24512,0.5249 0.5249,0.51269 0.5249,1.24512 0,0.73242 -0.5249,1.25732 -0.5127,0.5127 -1.24512,0.5127 -0.73242,0 -1.25732,-0.5127 -0.5127,-0.5249 -0.5127,-1.25732 0,-0.73243 0.5127,-1.24512 0.5249,-0.5249 1.25732,-0.5249 z m -1.5747,18.13965 0,-10.57129 -1.67237,0 0,-2.50245 4.76074,0 0,13.07374 -3.08837,0 z m -15.83252,-6.56739 q 0,-2.99072 1.72119,-4.8706 1.7334,-1.87989 4.56543,-1.87989 2.97851,0 4.62646,1.80664 1.64795,1.80665 1.64795,4.94385 0,3.125 -1.68457,4.96826 -1.67236,1.84327 -4.58984,1.84327 -2.97852,0 -4.63867,-1.85547 -1.64795,-1.86768 -1.64795,-4.95606 z m 3.17382,0 q 0,4.32129 3.1128,4.32129 1.42822,0 2.2583,-1.12305 0.84228,-1.12304 0.84228,-3.19824 0,-4.26025 -3.10058,-4.26025 -1.42823,0 -2.27051,1.12305 -0.84229,1.12304 -0.84229,3.1372 z m -17.08984,2.4292 2.83203,0 q 0.40283,1.5625 2.61231,1.5625 1.5625,0 2.19726,-1.01318 0.64697,-1.01319 0.64697,-3.07617 l 0,-11.21827 3.17383,0 0,11.12061 q 0,3.56445 -1.51367,5.28564 -1.51367,1.7212 -4.8584,1.7212 -2.22168,0 -3.58886,-1.15967 -1.36719,-1.15967 -1.50147,-3.22266 z" id="path33" />
                    </g>
                </g>
            </g>
            <g id="RegisterOrLogin" style="filter:url(#Shadow);fill:#aaaaaa;opacity:0;user-select:none;-webkit-user-select:none;-moz-user-select:none;cursor:hand;cursor:pointer">
                <rect style="opacity:0;fill:#131313" id="RegisterOrLoginBack" width="352.44098" height="42.426395" x="250.77951" y="979.59058" />
                <path d="m 570.68652,1003.5593 -1.86523,0 q -0.0195,-0.068 -0.18555,-0.4981 -0.15625,-0.4297 -0.15625,-0.7519 0,-0.6153 0.16602,-1.1817 0.17578,-0.5664 0.50781,-1.0547 0.33203,-0.49801 1.30859,-1.58199 0.98633,-1.08399 0.98633,-1.78711 0,-1.36719 -1.78711,-1.36719 -0.86914,0 -1.8164,0.86914 l -1.00586,-1.88477 q 1.25976,-0.98632 3.31054,-0.98632 1.58204,0 2.63672,0.8789 1.06446,0.87891 1.06446,2.33399 0,0.99609 -0.39063,1.68945 -0.38086,0.68359 -1.35742,1.61133 -0.9668,0.92777 -1.25977,1.54297 -0.29297,0.6152 -0.29297,1.3477 0,0.1562 0.13672,0.8203 z m -0.83007,1.3281 q 0.66406,0 1.12304,0.4687 0.46875,0.4688 0.46875,1.1329 0,0.664 -0.46875,1.1328 -0.45898,0.4687 -1.12304,0.4687 -0.66407,0 -1.13282,-0.4687 -0.46875,-0.4688 -0.46875,-1.1328 0,-0.6641 0.46875,-1.1329 0.46875,-0.4687 1.13282,-0.4687 z m -7.77344,3.0078 0,-6.0449 q 0,-1.3379 -0.51758,-1.95314 -0.50781,-0.61524 -1.66992,-0.61524 -0.53711,0 -1.15235,0.30274 -0.60546,0.30273 -0.94726,0.75194 l 0,7.5586 -2.44141,0 0,-10.45898 1.75781,0 0.44922,0.97656 q 0.9961,-1.17187 2.93946,-1.17187 1.86523,0 2.93945,1.12304 1.08398,1.11328 1.08398,3.11525 l 0,6.416 -2.4414,0 z m -10.79102,-14.51172 q 0.58594,0 0.9961,0.41993 0.41992,0.41015 0.41992,0.99609 0,0.58594 -0.41992,1.00586 -0.41016,0.41016 -0.9961,0.41016 -0.58594,0 -1.00586,-0.41016 -0.41015,-0.41992 -0.41015,-1.00586 0,-0.58594 0.41015,-0.99609 0.41992,-0.41993 1.00586,-0.41993 z m -1.25976,14.51172 0,-8.45703 -1.33789,0 0,-2.00195 3.80859,0 0,10.45898 -2.4707,0 z m -11.47461,2.6855 1.54297,-1.9042 q 1.27929,1.1718 2.85156,1.1718 1.05469,0 1.73828,-0.3125 0.68359,-0.3125 0.68359,-0.8593 0,-0.9278 -1.51367,-0.9278 -0.41015,0 -1.2207,0.098 -0.81055,0.098 -1.2207,0.098 -2.51954,0 -2.51954,-1.8066 0,-0.5176 0.41993,-1.0156 0.41992,-0.4981 0.97656,-0.7325 -1.78711,-1.1621 -1.78711,-3.291 0,-1.67966 1.23047,-2.77341 1.23047,-1.10352 3.02734,-1.10352 1.40625,0 2.35352,0.52735 l 0.95703,-1.11328 1.68945,1.5332 -1.16211,0.84961 q 0.60547,0.91797 0.60547,2.16795 0,1.7871 -1.09375,2.8613 -1.08398,1.0645 -2.74414,1.0645 -0.26367,0 -0.70312,-0.049 l -0.4004,-0.059 q -0.0684,0 -0.52734,0.2148 -0.44922,0.2051 -0.44922,0.4297 0,0.3906 0.67383,0.3906 0.30273,0 1.01563,-0.1465 0.71289,-0.1464 1.2207,-0.1464 3.56445,0 3.56445,2.8613 0,1.582 -1.42578,2.4805 -1.42578,0.9082 -3.4375,0.9082 -2.40234,0 -4.3457,-1.4161 z m 2.4414,-9.4726 q 0,0.9277 0.50782,1.4941 0.51757,0.5567 1.38671,0.5567 0.86915,0 1.3379,-0.5469 0.46875,-0.5469 0.46875,-1.5039 0,-0.791 -0.50782,-1.3379 -0.49804,-0.54687 -1.29883,-0.54687 -0.83984,0 -1.36718,0.52734 -0.52735,0.52733 -0.52735,1.35743 z m -13.67187,1.5332 q 0,-2.3926 1.37695,-3.89649 1.38672,-1.5039 3.65235,-1.5039 2.38281,0 3.70117,1.44531 1.31836,1.44528 1.31836,3.95508 0,2.5 -1.34766,3.9746 -1.33789,1.4746 -3.67187,1.4746 -2.38282,0 -3.71094,-1.4844 -1.31836,-1.4941 -1.31836,-3.9648 z m 2.53906,0 q 0,3.457 2.49024,3.457 1.14257,0 1.80664,-0.8984 0.67382,-0.8984 0.67382,-2.5586 0,-3.40821 -2.48046,-3.40821 -1.14258,0 -1.81641,0.89841 -0.67383,0.8985 -0.67383,2.5098 z m -7.33398,-9.10157 2.4414,-0.58593 0,11.7578 q 0,1.9336 1.15235,2.3047 -0.56641,1.0742 -1.9336,1.0742 -1.66015,0 -1.66015,-2.3047 l 0,-12.24607 z m -18.44727,9.10157 q 0,-2.3926 1.37695,-3.89649 1.38672,-1.5039 3.65235,-1.5039 2.38281,0 3.70117,1.44531 1.31836,1.44528 1.31836,3.95508 0,2.5 -1.34766,3.9746 -1.33789,1.4746 -3.67187,1.4746 -2.38281,0 -3.71094,-1.4844 -1.31836,-1.4941 -1.31836,-3.9648 z m 2.53906,0 q 0,3.457 2.49024,3.457 1.14258,0 1.80664,-0.8984 0.67383,-0.8984 0.67383,-2.5586 0,-3.40821 -2.48047,-3.40821 -1.14258,0 -1.81641,0.89841 -0.67383,0.8985 -0.67383,2.5098 z m -9.41406,-3.24219 -1.21094,0 0,-1.96289 1.21094,0 0,-2.12891 2.44141,-0.89844 0,3.02735 2.87109,0 0,1.96289 -2.87109,0 0,4.58009 q 0,1.123 0.35156,1.5918 0.35156,0.459 1.23047,0.459 0.8789,0 1.64062,-0.4785 l 0,2.246 q -0.84961,0.293 -2.42187,0.293 -1.5625,0 -2.40235,-0.8789 -0.83984,-0.8887 -0.83984,-2.5195 l 0,-5.29299 z m -13.94531,0 -1.21094,0 0,-1.96289 1.21094,0 0,-2.12891 2.4414,-0.89844 0,3.02735 2.8711,0 0,1.96289 -2.8711,0 0,4.58009 q 0,1.123 0.35157,1.5918 0.35156,0.459 1.23047,0.459 0.8789,0 1.64062,-0.4785 l 0,2.246 q -0.84961,0.293 -2.42187,0.293 -1.5625,0 -2.40235,-0.8789 -0.83984,-0.8887 -0.83984,-2.5195 l 0,-5.29299 z m -5.43945,8.49609 0,-6.0449 q 0,-1.3379 -0.51758,-1.95314 -0.50782,-0.61524 -1.66992,-0.61524 -0.53711,0 -1.15235,0.30274 -0.60547,0.30273 -0.94726,0.75194 l 0,7.5586 -2.44141,0 0,-10.45898 1.75781,0 0.44922,0.97656 q 0.99609,-1.17187 2.93945,-1.17187 1.86524,0 2.93946,1.12304 1.08398,1.11328 1.08398,3.11525 l 0,6.416 -2.4414,0 z m -11.57227,-1.0449 q -0.33203,0.5469 -1.16211,0.8984 -0.82031,0.3418 -1.71875,0.3418 -1.68945,0 -2.65625,-0.8398 -0.9668,-0.8496 -0.9668,-2.4024 0,-1.8164 1.35743,-2.8418 1.36718,-1.0254 3.87695,-1.0254 0.42969,0 1.01562,0.1465 0,-1.84568 -2.33398,-1.84568 -1.37695,0 -2.30469,0.45899 l -0.52734,-1.89454 q 1.25976,-0.60546 2.99804,-0.60546 2.39258,0 3.50586,1.09375 1.11329,1.08398 1.11329,4.12104 l 0,2.2364 q 0,2.0898 0.83984,2.6269 -0.30274,0.5274 -0.67383,0.6446 -0.37109,0.1269 -0.84961,0.1269 -0.52734,0 -0.94726,-0.3906 -0.41993,-0.3906 -0.56641,-0.8496 z m -0.23438,-3.877 q -0.625,-0.1269 -0.9375,-0.1269 -2.89062,0 -2.89062,1.8945 0,1.4063 1.63086,1.4063 2.19726,0 2.19726,-2.1973 l 0,-0.9766 z m -10.97656,5.1172 -0.88867,0 -2.87109,-6.4258 -2.86133,6.4258 -0.89844,0 -3.94531,-10.65428 2.56836,0 2.09961,6.24028 2.55859,-6.24028 0.87891,0 2.64648,6.27928 2.26563,-6.27928 2.40234,0 -3.95508,10.65428 z m -18.79883,-8.37889 q -0.65429,-0.42969 -1.43554,-0.42969 -0.84961,0 -1.51367,0.77148 -0.6543,0.7715 -0.6543,1.8848 l 0,5.957 -2.44141,0 0,-10.45898 2.44141,0 0,0.95703 q 1.02539,-1.15234 2.72461,-1.15234 1.25,0 1.91406,0.38086 l -1.03516,2.08984 z m -18.05664,2.92969 q 0,-2.3926 1.37696,-3.89649 1.38672,-1.5039 3.65234,-1.5039 2.38281,0 3.70117,1.44531 1.31836,1.44528 1.31836,3.95508 0,2.5 -1.34765,3.9746 -1.3379,1.4746 -3.67188,1.4746 -2.38281,0 -3.71094,-1.4844 -1.31836,-1.4941 -1.31836,-3.9648 z m 2.53907,0 q 0,3.457 2.49023,3.457 1.14258,0 1.80664,-0.8984 0.67383,-0.8984 0.67383,-2.5586 0,-3.40821 -2.48047,-3.40821 -1.14258,0 -1.81641,0.89841 -0.67382,0.8985 -0.67382,2.5098 z m -10.38086,-2.92969 q -0.6543,-0.42969 -1.43555,-0.42969 -0.84961,0 -1.51367,0.77148 -0.6543,0.7715 -0.6543,1.8848 l 0,5.957 -2.44141,0 0,-10.45898 2.44141,0 0,0.95703 q 1.02539,-1.15234 2.72461,-1.15234 1.25,0 1.91406,0.38086 l -1.03515,2.08984 z m -8.19336,3.70119 -7.47071,0 q 0.0684,1.25 0.85938,1.9433 0.79101,0.6934 2.12891,0.6934 1.66992,0 2.53906,-0.8691 l 0.94726,1.8652 q -1.28906,1.0449 -3.84765,1.0449 -2.39258,0 -3.78907,-1.3965 -1.38671,-1.4062 -1.38671,-3.916 0,-2.4707 1.52343,-4.00389 1.53321,-1.5332 3.67188,-1.5332 2.27539,0 3.65234,1.35742 1.37696,1.35742 1.37696,3.45707 0,0.4492 -0.20508,1.3574 z m -7.38282,-1.836 5.13672,0 q -0.2539,-2.29488 -2.53906,-2.29488 -2.08984,0 -2.59766,2.29488 z m -11.86523,5.7422 -0.54687,0.7715 -1.37696,0 0,-14.55077 2.44141,-0.58593 0,4.88281 q 0.97656,-0.5957 2.1289,-0.5957 2.29493,0 3.70118,1.45507 1.40625,1.44532 1.40625,3.71092 0,2.627 -1.41602,4.1602 -1.41601,1.5234 -3.83789,1.5234 -1.45508,0 -2.5,-0.7715 z m 0.51758,-7.39255 0,5.45895 q 0.53711,0.6348 1.45508,0.6348 1.76757,0 2.5,-0.8398 0.74218,-0.8399 0.74218,-2.6856 0,-3.18358 -3.04687,-3.18358 -1.08399,0 -1.65039,0.61523 z m -7.32422,7.96875 0,-6.5527 q 0,-2.06058 -1.8457,-2.06058 -0.54688,0 -1.05469,0.32227 -0.50781,0.32226 -0.71289,0.74221 l 0,7.5488 -2.44141,0 0,-6.9336 q 0,-0.7715 -0.47851,-1.22069 -0.47852,-0.45899 -1.34766,-0.45899 -0.45898,0 -1.00586,0.3418 -0.53711,0.3418 -0.78125,0.75198 l 0,7.5195 -2.44141,0 0,-10.45898 1.67969,0 0.49805,0.91797 q 1.01562,-1.11328 2.62695,-1.11328 2.08008,0 3.13477,1.13281 0.45898,-0.51758 1.27929,-0.82031 0.82032,-0.3125 1.64063,-0.3125 1.74805,0 2.71484,1.00586 0.97657,0.99609 0.97657,2.74413 l 0,6.9043 -2.44141,0 z m -14.25781,-4.4824 -7.47071,0 q 0.0684,1.25 0.85938,1.9433 0.79101,0.6934 2.12891,0.6934 1.66992,0 2.53906,-0.8691 l 0.94726,1.8652 q -1.28906,1.0449 -3.84765,1.0449 -2.39258,0 -3.78907,-1.3965 -1.38671,-1.4062 -1.38671,-3.916 0,-2.4707 1.52343,-4.00389 1.53321,-1.5332 3.67188,-1.5332 2.27539,0 3.65234,1.35742 1.37696,1.35742 1.37696,3.45707 0,0.4492 -0.20508,1.3574 z m -7.38282,-1.836 5.13672,0 q -0.2539,-2.29488 -2.53906,-2.29488 -2.08984,0 -2.59766,2.29488 z m -7.03125,6.3184 0,-6.5527 q 0,-2.06058 -1.8457,-2.06058 -0.54687,0 -1.05469,0.32227 -0.50781,0.32226 -0.71289,0.74221 l 0,7.5488 -2.4414,0 0,-6.9336 q 0,-0.7715 -0.47852,-1.22069 -0.47851,-0.45899 -1.34765,-0.45899 -0.45899,0 -1.00586,0.3418 -0.53711,0.3418 -0.78125,0.75198 l 0,7.5195 -2.44141,0 0,-10.45898 1.67969,0 0.49804,0.91797 q 1.01563,-1.11328 2.62696,-1.11328 2.08008,0 3.13476,1.13281 0.45899,-0.51758 1.2793,-0.82031 0.82031,-0.3125 1.64062,-0.3125 1.74805,0 2.71485,1.00586 0.97656,0.99609 0.97656,2.74413 l 0,6.9043 -2.44141,0 z m -22.96875,-1.0449 q -0.33203,0.5469 -1.1621,0.8984 -0.82032,0.3418 -1.71875,0.3418 -1.68946,0 -2.65625,-0.8398 -0.9668,-0.8496 -0.9668,-2.4024 0,-1.8164 1.35742,-2.8418 1.36719,-1.0254 3.87695,-1.0254 0.42969,0 1.01563,0.1465 0,-1.84568 -2.33399,-1.84568 -1.37695,0 -2.30468,0.45899 l -0.52735,-1.89454 q 1.25977,-0.60546 2.99805,-0.60546 2.39258,0 3.50586,1.09375 1.11328,1.08398 1.11328,4.12104 l 0,2.2364 q 0,2.0898 0.83984,2.6269 -0.30273,0.5274 -0.67382,0.6446 -0.3711,0.1269 -0.84961,0.1269 -0.52735,0 -0.94727,-0.3906 -0.41992,-0.3906 -0.56641,-0.8496 z m -0.23437,-3.877 q -0.625,-0.1269 -0.9375,-0.1269 -2.89063,0 -2.89063,1.8945 0,1.4063 1.63086,1.4063 2.19727,0 2.19727,-2.1973 l 0,-0.9766 z m -19.16016,-3.57419 -1.21093,0 0,-1.96289 1.21093,0 0,-2.12891 2.44141,-0.89844 0,3.02735 2.87109,0 0,1.96289 -2.87109,0 0,4.58009 q 0,1.123 0.35156,1.5918 0.35156,0.459 1.23047,0.459 0.87891,0 1.64063,-0.4785 l 0,2.246 q -0.84961,0.293 -2.42188,0.293 -1.5625,0 -2.40234,-0.8789 -0.83985,-0.8887 -0.83985,-2.5195 l 0,-5.29299 z m -12.38281,3.24219 q 0,-2.3926 1.37695,-3.89649 1.38672,-1.5039 3.65235,-1.5039 2.38281,0 3.70117,1.44531 1.31836,1.44528 1.31836,3.95508 0,2.5 -1.34766,3.9746 -1.33789,1.4746 -3.67187,1.4746 -2.38281,0 -3.71094,-1.4844 -1.31836,-1.4941 -1.31836,-3.9648 z m 2.53906,0 q 0,3.457 2.49024,3.457 1.14258,0 1.80664,-0.8984 0.67383,-0.8984 0.67383,-2.5586 0,-3.40821 -2.48047,-3.40821 -1.14258,0 -1.81641,0.89841 -0.67383,0.8985 -0.67383,2.5098 z m -5.68359,5.4492 -6.94336,-9.05272 0,8.86722 -2.44141,0 0,-14.31644 1.22071,0 6.75781,8.63284 0,-8.63284 2.44141,0 0,14.50194 -1.03516,0 z" id="path37" />
            </g>
        </g>
        <g style="display:inline" id="g39">
            <g id="Logo" transform="translate(-5.4418945e-6,-574.5028)" style="opacity:0;fill:#cccccc;filter:url(#Shadow)">
                <path d="m 511.38965,802.8407 q 0.17578,3.89648 0.32226,6.76758 0.17579,2.84179 0.32227,4.95117 0.14648,2.08008 0.26367,3.54492 0.11719,1.46484 0.20508,2.60742 0.11719,1.11328 0.14648,2.05078 0.0586,0.90821 0.0586,1.9043 0,1.96289 -0.55664,3.51563 -0.52735,1.52343 -1.46485,2.66601 -0.9082,1.14258 -2.13867,1.96289 -1.20117,0.79102 -2.54883,1.28906 -1.31836,0.49805 -2.69531,0.70313 -1.37695,0.23437 -2.60742,0.23437 -2.25586,0 -3.92578,-0.67382 -1.64063,-0.70313 -2.72461,-1.78711 -1.08399,-1.11328 -1.58203,-2.46094 -0.52735,-1.37695 -0.52735,-2.75391 0,-1.05468 0.29297,-1.93359 0.26367,-0.9082 0.70313,-1.61133 0.43945,-0.70312 0.99609,-1.20117 0.58594,-0.52734 1.20117,-0.82031 2.51953,-4.51172 4.24805,-8.90625 1.72852,-4.42383 3.13477,-8.87696 l 8.87695,-1.17187 z m -16.25977,23.26172 q 0,2.10937 0.82032,3.16406 0.8496,1.02539 2.84179,1.02539 0.9961,0 1.9336,-0.26367 0.9375,-0.29297 1.66992,-0.9375 0.73242,-0.67383 1.17187,-1.72852 0.43946,-1.05468 0.43946,-2.63672 0,-0.76171 -0.0586,-1.46484 -0.0293,-0.73242 -0.0879,-1.52344 -0.0586,-0.82031 -0.17578,-1.8164 -0.0879,-0.9961 -0.23437,-2.31446 -0.11719,-1.31836 -0.26368,-3.04687 -0.14648,-1.72852 -0.32226,-4.04297 -0.90821,2.92969 -2.13867,5.68359 -1.23047,2.75391 -2.72461,5.6543 0.58593,0.32227 0.96679,0.82031 0.41016,0.49805 0.41016,1.25977 0,0.55664 -0.17578,1.08398 -0.17578,0.52735 -0.52735,0.9668 -0.35156,0.41016 -0.8496,0.67383 -0.46875,0.23437 -1.08399,0.23437 -0.49805,0 -0.9375,-0.14648 -0.43945,-0.14649 -0.67383,-0.64453 z m 1.20117,-2.16797 q -0.8496,2.43164 -1.8457,4.21875 -0.99609,1.78711 -2.08008,3.01758 -1.05468,1.23047 -2.16797,1.99218 -1.11328,0.76172 -2.16796,1.17188 -1.05469,0.41016 -2.02149,0.55664 -0.9668,0.14648 -1.75781,0.14648 -2.57813,0 -4.10156,-1.40625 -1.52344,-1.43554 -1.84571,-4.27734 -1.14257,1.8457 -2.31445,2.95898 -1.17187,1.11329 -2.31445,1.72852 -1.14258,0.61523 -2.22657,0.79102 -1.08398,0.20507 -2.02148,0.20507 -1.34766,0 -2.51953,-0.41015 -1.17188,-0.41016 -2.05078,-1.28906 -0.84961,-0.87891 -1.34766,-2.22657 -0.49805,-1.34765 -0.49805,-3.25195 0,-0.82031 0.11719,-1.78711 0.11719,-0.99609 0.35156,-2.13867 l 4.07227,-19.24805 8.64258,0 -4.30664,20.39063 q -0.17578,0.9375 -0.17578,1.69922 0,1.02539 0.38086,1.75781 0.38086,0.70312 1.40625,0.70312 0.8789,0 1.61132,-0.38086 0.73243,-0.41015 1.31836,-1.11328 0.61524,-0.70312 1.05469,-1.66992 0.46875,-0.99609 0.82031,-2.13867 l 4.07227,-19.24805 8.64258,0 -4.30664,20.39063 q -0.14649,0.49804 -0.20508,0.99609 -0.0586,0.46875 -0.0586,0.9375 0,1.25977 0.58594,1.75781 0.61524,0.46875 1.875,0.46875 0.87891,0 1.61133,-0.38086 0.76172,-0.41015 1.37695,-1.11328 0.61524,-0.70312 1.08399,-1.66992 0.46875,-0.99609 0.79101,-2.13867 l 2.51953,0 z m -30.32226,0 q -0.84961,2.43164 -1.9043,4.21875 -1.02539,1.78711 -2.16797,3.01758 -1.11328,1.23047 -2.31445,1.99218 -1.17187,0.76172 -2.28516,1.17188 -1.11328,0.41016 -2.13867,0.55664 -0.99609,0.14648 -1.78711,0.14648 -1.34765,0 -2.51953,-0.41015 -1.17187,-0.41016 -2.05078,-1.28906 -0.84961,-0.87891 -1.34766,-2.22657 -0.49804,-1.34765 -0.49804,-3.25195 0,-0.82031 0.11718,-1.78711 0.11719,-0.99609 0.35157,-2.13867 l 3.60351,-16.8457 -1.99218,0 0.49804,-2.40235 1.96289,0 1.81641,-8.29101 8.87695,-1.20118 -2.05078,9.49219 3.60352,0 -0.46875,2.40235 -3.60352,0 -3.83789,17.98828 q -0.14648,0.49804 -0.20508,0.99609 -0.0293,0.46875 -0.0293,0.9375 0,1.25977 0.58593,1.75781 0.58594,0.46875 1.84571,0.46875 0.8789,0 1.69921,-0.38086 0.84961,-0.41015 1.55274,-1.11328 0.70312,-0.70312 1.25976,-1.66992 0.55665,-0.99609 0.90821,-2.13867 l 2.51953,0 z m -16.55274,0 q -1.25976,2.10937 -2.90039,4.10156 -1.61132,1.99219 -3.66211,3.54492 -2.02148,1.55274 -4.51171,2.51953 -2.46094,0.9375 -5.41993,0.9375 -2.13867,0 -3.86718,-0.52734 -1.72852,-0.55664 -2.95899,-1.69922 -1.23047,-1.14258 -1.875,-2.92969 -0.67383,-1.8164 -0.67383,-4.36523 0,-1.72852 0.35157,-3.98438 0.35156,-2.28515 1.11328,-4.6582 0.79101,-2.37305 2.02148,-4.6582 1.25977,-2.28516 3.04688,-4.07227 1.8164,-1.78711 4.18945,-2.87109 2.37305,-1.11328 5.41992,-1.11328 1.99219,0 3.28125,0.49804 1.28906,0.46875 2.05078,1.25977 0.76172,0.76172 1.05469,1.75781 0.29297,0.9961 0.29297,1.99219 0,1.11328 -0.26367,1.93359 -0.23438,0.79102 -0.67383,1.34766 -0.43945,0.55664 -1.02539,0.82031 -0.58594,0.26367 -1.23047,0.26367 -1.02539,0 -2.10937,-0.70312 0.73242,-1.93359 0.73242,-3.54492 0,-1.11328 -0.41016,-1.78711 -0.41016,-0.67383 -1.25976,-0.67383 -0.9375,0 -1.875,0.84961 -0.9375,0.84961 -1.81641,2.25586 -0.84961,1.40625 -1.58203,3.22266 -0.73242,1.8164 -1.28906,3.77929 -0.52735,1.96289 -0.84961,3.92578 -0.29297,1.9336 -0.29297,3.60352 0,1.52344 0.26367,2.51953 0.29297,0.9668 0.82031,1.52344 0.55664,0.55664 1.34766,0.79101 0.82031,0.20508 1.90429,0.20508 1.78711,0 3.22266,-0.46875 1.46484,-0.46875 2.72461,-1.28906 1.25977,-0.82031 2.37305,-1.93359 1.14258,-1.11329 2.28515,-2.37305 l 2.05078,0 z m -17.7246,-12.04102 q -1.75782,1.84571 -4.54102,3.13477 -2.7832,1.28906 -6.09375,1.8457 -0.35156,4.16016 -1.61133,7.5 -1.23047,3.33985 -3.13476,5.6836 -1.9043,2.34375 -4.36524,3.60351 -2.46094,1.25977 -5.21484,1.25977 -2.08008,0 -3.86719,-0.49805 -1.75781,-0.52734 -3.04687,-1.64063 -1.25977,-1.14257 -1.9629,-2.92968 -0.73242,-1.81641 -0.73242,-4.39453 0,-1.75782 0.38086,-3.98438 0.35156,-2.25586 1.14258,-4.62891 0.82031,-2.37304 2.08008,-4.6289 1.28906,-2.28516 3.10547,-4.07227 1.8457,-1.78711 4.24804,-2.87109 2.40235,-1.11328 5.47852,-1.11328 7.70508,0 7.70508,9.58008 l 0,0.0586 q 0.14648,0.0586 0.26367,0.0586 0.14648,0 0.38086,0 1.05469,0 2.25586,-0.29297 1.23047,-0.32226 2.46094,-0.82031 1.23046,-0.49804 2.40234,-1.14258 1.17187,-0.67382 2.13867,-1.34765 l 0.52735,1.64062 z m -15.61524,5.15625 q -0.9375,-0.23437 -1.28906,-0.9082 -0.32227,-0.70313 -0.32227,-1.61133 0,-1.25976 0.49805,-2.05078 0.52734,-0.82031 1.37695,-1.20117 -0.0586,-0.9668 -0.20508,-1.61133 -0.14648,-0.67383 -0.41015,-1.08398 -0.26367,-0.43946 -0.67383,-0.61524 -0.38086,-0.17578 -0.99609,-0.17578 -1.08399,0 -2.08008,0.84961 -0.9961,0.82031 -1.9043,2.19727 -0.8789,1.37695 -1.64062,3.16406 -0.73243,1.75781 -1.25977,3.63281 -0.52734,1.875 -0.82031,3.7207 -0.29297,1.81641 -0.29297,3.31055 0,1.49414 0.14648,2.43164 0.17579,0.9375 0.52735,1.49414 0.38086,0.52735 0.96679,0.73242 0.58594,0.20508 1.43555,0.20508 1.08399,0 2.16797,-0.9668 1.11328,-0.96679 2.05078,-2.63671 0.9375,-1.66993 1.64063,-3.95508 0.73242,-2.28516 1.08398,-4.92188 z m -43.00781,17.63672 6.35742,-30 8.64258,0 -0.76172,3.7207 q 0.79102,-0.70312 1.61133,-1.37695 0.82031,-0.67383 1.69922,-1.17187 0.9082,-0.52735 1.875,-0.84961 0.96679,-0.32227 2.05078,-0.32227 1.02539,0 1.78711,0.38086 0.79101,0.38086 1.31836,0.99609 0.52734,0.61524 0.79101,1.43555 0.26367,0.82031 0.26367,1.69922 0,0.79102 -0.26367,1.58203 -0.26367,0.76172 -0.82031,1.37695 -0.52734,0.61524 -1.34766,1.0254 -0.82031,0.38085 -1.90429,0.38085 -0.84961,0 -1.31836,-0.29296 -0.43946,-0.29297 -0.67383,-0.73243 -0.23438,-0.43945 -0.35156,-0.9375 -0.0879,-0.52734 -0.20508,-0.96679 -0.11719,-0.43946 -0.32227,-0.73242 -0.17578,-0.29297 -0.61523,-0.29297 -1.37695,0 -2.31445,0.64453 -0.9375,0.61523 -2.05079,1.64062 l -4.80468,22.79297 -8.64258,0 z m -26.51367,0 8.14453,-38.17383 8.87695,-1.17187 -4.24805,20.03906 q 1.52344,-0.11719 2.8711,-0.82031 1.37695,-0.70313 2.54883,-1.78711 1.17187,-1.11328 2.10937,-2.54883 0.9375,-1.43555 1.58203,-3.01758 0.67383,-1.61133 1.02539,-3.28125 0.35157,-1.69922 0.35157,-3.31054 0,-1.66993 -0.43946,-3.13477 -0.41015,-1.49414 -1.31836,-2.60742 -0.8789,-1.14258 -2.31445,-1.78711 -1.40625,-0.64453 -3.36914,-0.64453 -3.66211,0 -6.5625,0.99609 -2.87109,0.9961 -4.86328,2.8711 -1.99219,1.875 -3.04688,4.5996 -1.05468,2.69532 -1.05468,6.12305 0,1.14258 0.11718,1.875 0.14649,0.70313 0.29297,1.14258 0.14649,0.41016 0.26367,0.64453 0.14649,0.23438 0.14649,0.41016 -1.55274,0 -2.75391,-0.29297 -1.20117,-0.32227 -2.02148,-0.9961 -0.79102,-0.67382 -1.23047,-1.7871 -0.41016,-1.11329 -0.41016,-2.75391 0,-1.99219 0.84961,-3.92578 0.87891,-1.9336 2.37305,-3.66211 1.52344,-1.72852 3.54492,-3.19336 2.05078,-1.46484 4.36523,-2.51953 2.34375,-1.08399 4.86329,-1.66992 2.54882,-0.61524 5.06836,-0.61524 3.6914,0 6.35742,0.9961 2.66601,0.96679 4.39453,2.60742 1.75781,1.64062 2.57812,3.77929 0.82032,2.10938 0.82032,4.42383 0,2.8711 -1.20118,5.74219 -1.17187,2.87109 -3.42773,5.18555 -2.22656,2.28515 -5.44922,3.7207 -3.19336,1.43555 -7.23633,1.43555 l -0.32226,0 -3.66211,17.10937 -8.61328,0 z" id="path42" />
            </g>
        </g>
    </svg>
